<svg xmlns="http://www.w3.org/2000/svg" viewBox="0 0 399.13 573.99">
<defs>
<style>
.cls-1-w{fill:#020202;}
.cls-2-w{fill:none;}
.cls-2-w,.cls-3-w{stroke:#000;stroke-miterlimit:10;stroke-width:3px;}
.cls-3-w{fill:#fff;}



</style>
</defs>
<g id="Layer_2" data-name="Layer 2">
<g id="Layer_1-2" data-name="Layer 1">
<path class="cls-1-w" d="M62.42,28c0,9.46-4.25,17.26-9.73,18.39v27H49.75v-27c-3.86-.9-7.08-5.1-8.61-10.84-2.31,6.08-6.27,10.09-10.77,10.09h-.05V73.69l-2.61-.75V45.08c-5.87-2.14-10.29-11.24-10.29-22.14,0-12.49,13-22.62,13-22.62s10.26,8,12.51,18.61a35.67,35.67,0,0,1,8.43-9.5S62.42,17.73,62.42,28Z"/><line class="cls-2-w" x1="127.9" y1="34.45" x2="105.26" y2="34.45"/><line class="cls-2-w" x1="122.34" y1="29.7" x2="105.82" y2="24.28"/><line class="cls-2-w" x1="127.33" y1="31.35" x2="122.34" y2="29.71"/><line class="cls-2-w" x1="163.88" y1="32.11" x2="162.25" y2="32.11"/><line class="cls-2-w" x1="184.7" y1="32.11" x2="172.42" y2="32.11"/><line class="cls-2-w" x1="163.88" y1="32.11" x2="159.48" y2="34.65"/><line class="cls-2-w" x1="183.53" y1="20.79" x2="170.87" y2="28.09"/><line class="cls-2-w" x1="185.42" y1="42.64" x2="163.91" y2="35.57"/><line class="cls-2-w" x1="129.79" y1="35.04" x2="108.66" y2="43.18"/><path class="cls-3-w" d="M173.14,35.91a13.46,13.46,0,0,1-.15,2.65,21,21,0,0,1-3.55,8.08c-7.6,13.13-20.72,13.83-22.56,13.57-5.46-.78-16.86-5.61-20.23-11.57l0,.15C125.13,44.67,123,42,122.21,38a17.9,17.9,0,0,1-.33-3.51,27,27,0,0,1,.46-4.74h0a48.61,48.61,0,0,1,1.42-5.7c2.22-7.27-5-14-1.76-16.2,2-1.34,9.23,9.52,14.64,8.79,2.51-.35,13.35,1.69,19.91,0,6.13-1.59,12.76-12.68,15-9.57,1.55,2.12-.64,7-1.76,15.81a10.57,10.57,0,0,0,1.05,5.25c.51,1.28,1.1,2.6,1.56,4A14.8,14.8,0,0,1,173.14,35.91Z"/><path class="cls-1-w" d="M273.49,27.65c0,9.45-4.24,17.25-9.72,18.38V73h-2.94V46c-3.87-.9-7.09-5.11-8.61-10.85-2.32,6.08-6.28,10.09-10.78,10.09h-.05V73.37l-2.61-.75V44.77c-5.87-2.15-10.29-11.25-10.29-22.15C228.49,10.13,241.44,0,241.44,0S251.71,8,254,18.62a35.72,35.72,0,0,1,8.42-9.5S273.49,17.41,273.49,27.65Z"/><path class="cls-1-w" d="M173,110.27c0,9.45-4.25,17.25-9.73,18.39v27h-2.94v-27c-3.86-.9-7.09-5.1-8.61-10.84-2.32,6.08-6.28,10.09-10.78,10.09h0V156l-2.61-.76V127.39c-5.88-2.14-10.29-11.24-10.29-22.14,0-12.5,12.94-22.63,12.94-22.63s10.27,8,12.52,18.62a35.72,35.72,0,0,1,8.42-9.5S173,100,173,110.27Z"/><path class="cls-1-w" d="M274,192.84c0,9.45-4.25,17.26-9.73,18.39v27h-2.94v-27c-3.86-.9-7.09-5.1-8.61-10.84-2.32,6.08-6.28,10.09-10.78,10.09h0v28.13l-2.61-.76V210c-5.88-2.14-10.29-11.24-10.29-22.14,0-12.5,12.94-22.63,12.94-22.63s10.27,8,12.52,18.62a35.72,35.72,0,0,1,8.42-9.5S274,182.61,274,192.84Z"/><path class="cls-1-w" d="M63,194.52c0,9.46-4.25,17.26-9.73,18.39v27H50.36v-27c-3.86-.89-7.08-5.1-8.61-10.84-2.31,6.08-6.27,10.09-10.77,10.09h-.05v28.13l-2.61-.75V211.64C22.45,209.5,18,200.4,18,189.5c0-12.49,13-22.62,13-22.62s10.26,8,12.51,18.61a35.67,35.67,0,0,1,8.43-9.5S63,184.29,63,194.52Z"/><path class="cls-1-w" d="M377.34,113.06c0,9.46-4.25,17.26-9.73,18.39v27h-2.94v-27c-3.86-.89-7.08-5.1-8.61-10.84-2.31,6.08-6.27,10.09-10.77,10.09h-.05v28.13l-2.61-.75V130.18c-5.88-2.14-10.29-11.24-10.29-22.14,0-12.49,13-22.62,13-22.62s10.26,8,12.51,18.61a35.67,35.67,0,0,1,8.43-9.5S377.34,102.83,377.34,113.06Z"/><path class="cls-1-w" d="M170.81,277.13c0,9.46-4.24,17.26-9.72,18.39v27h-2.94v-27c-3.86-.89-7.09-5.1-8.61-10.84-2.32,6.08-6.28,10.09-10.78,10.09h0v28.13l-2.61-.75V294.25c-5.87-2.14-10.29-11.24-10.29-22.14,0-12.49,12.95-22.62,12.95-22.62s10.27,8,12.52,18.61a35.72,35.72,0,0,1,8.42-9.5S170.81,266.9,170.81,277.13Z"/><path class="cls-1-w" d="M377.81,275.13c0,9.46-4.24,17.26-9.72,18.39v27h-2.94v-27c-3.86-.89-7.09-5.1-8.61-10.84-2.32,6.08-6.28,10.09-10.78,10.09h-.05v28.13l-2.61-.75V292.25c-5.87-2.14-10.29-11.24-10.29-22.14,0-12.49,12.95-22.62,12.95-22.62s10.27,8,12.52,18.61a35.72,35.72,0,0,1,8.42-9.5S377.81,264.9,377.81,275.13Z"/><line class="cls-2-w" x1="337.64" y1="34.79" x2="315" y2="34.79"/><line class="cls-2-w" x1="332.08" y1="30.04" x2="315.56" y2="24.62"/><line class="cls-2-w" x1="337.08" y1="31.69" x2="332.08" y2="30.05"/><line class="cls-2-w" x1="373.63" y1="32.45" x2="372" y2="32.45"/><line class="cls-2-w" x1="394.44" y1="32.45" x2="382.17" y2="32.45"/><line class="cls-2-w" x1="373.63" y1="32.45" x2="369.22" y2="34.99"/><line class="cls-2-w" x1="393.27" y1="21.13" x2="380.61" y2="28.43"/><line class="cls-2-w" x1="395.16" y1="42.98" x2="373.65" y2="35.91"/><line class="cls-2-w" x1="339.53" y1="35.38" x2="318.41" y2="43.52"/><path class="cls-3-w" d="M382.88,36.25a13.46,13.46,0,0,1-.15,2.65c-.63,4.05-2.9,7-3.55,8.08-7.6,13.13-20.72,13.83-22.55,13.57-5.47-.78-16.87-5.61-20.24-11.57l0,.15C334.87,45,332.76,42.34,332,38.3a17.13,17.13,0,0,1-.34-3.51,27,27,0,0,1,.46-4.74h0a48.61,48.61,0,0,1,1.42-5.7c2.23-7.27-5-14-1.76-16.2,2-1.34,9.24,9.52,14.64,8.79,2.51-.35,13.35,1.69,19.91,0,6.13-1.59,12.77-12.68,15-9.57,1.56,2.12-.64,7-1.76,15.81a10.63,10.63,0,0,0,1.05,5.26c.51,1.27,1.1,2.59,1.56,4A14.8,14.8,0,0,1,382.88,36.25Z"/><line class="cls-2-w" x1="22.64" y1="122.79" y2="122.79"/><line class="cls-2-w" x1="17.08" y1="118.04" x2="0.56" y2="112.62"/><line class="cls-2-w" x1="22.08" y1="119.69" x2="17.08" y2="118.05"/><line class="cls-2-w" x1="58.63" y1="120.45" x2="57" y2="120.45"/><line class="cls-2-w" x1="79.44" y1="120.45" x2="67.17" y2="120.45"/><line class="cls-2-w" x1="58.63" y1="120.45" x2="54.22" y2="122.99"/><line class="cls-2-w" x1="78.27" y1="109.13" x2="65.61" y2="116.43"/><line class="cls-2-w" x1="80.16" y1="130.98" x2="58.65" y2="123.91"/><line class="cls-2-w" x1="24.53" y1="123.38" x2="3.41" y2="131.52"/><path class="cls-3-w" d="M67.88,124.25a13.46,13.46,0,0,1-.15,2.65c-.63,4-2.9,7-3.55,8.08-7.6,13.13-20.72,13.83-22.55,13.57-5.47-.78-16.87-5.61-20.24-11.57l0,.15C19.87,133,17.76,130.34,17,126.3a17.13,17.13,0,0,1-.34-3.51,27,27,0,0,1,.46-4.74h0a48.61,48.61,0,0,1,1.42-5.7c2.23-7.27-5-14-1.76-16.2,2-1.34,9.24,9.52,14.64,8.79,2.51-.35,13.35,1.69,19.91,0,6.13-1.59,12.77-12.68,15-9.57,1.56,2.12-.64,7-1.76,15.81a10.63,10.63,0,0,0,1,5.26c.51,1.27,1.1,2.59,1.56,4A14.8,14.8,0,0,1,67.88,124.25Z"/><line class="cls-2-w" x1="228.64" y1="121.79" x2="206" y2="121.79"/><line class="cls-2-w" x1="223.08" y1="117.04" x2="206.56" y2="111.62"/><line class="cls-2-w" x1="228.08" y1="118.69" x2="223.08" y2="117.05"/><line class="cls-2-w" x1="264.63" y1="119.45" x2="263" y2="119.45"/><line class="cls-2-w" x1="285.44" y1="119.45" x2="273.17" y2="119.45"/><line class="cls-2-w" x1="264.63" y1="119.45" x2="260.22" y2="121.99"/><line class="cls-2-w" x1="284.27" y1="108.13" x2="271.61" y2="115.43"/><line class="cls-2-w" x1="286.16" y1="129.98" x2="264.65" y2="122.91"/><line class="cls-2-w" x1="230.53" y1="122.38" x2="209.41" y2="130.52"/><path class="cls-3-w" d="M273.88,123.25a13.46,13.46,0,0,1-.15,2.65c-.63,4-2.9,7-3.55,8.08-7.6,13.13-20.72,13.83-22.55,13.57-5.47-.78-16.87-5.61-20.24-11.57l0,.15c-1.56-4.12-3.67-6.79-4.47-10.83a17.13,17.13,0,0,1-.34-3.51,27,27,0,0,1,.46-4.74h0a48.61,48.61,0,0,1,1.42-5.7c2.23-7.27-5-14-1.76-16.2,2-1.34,9.24,9.52,14.64,8.79,2.51-.35,13.35,1.69,19.91,0,6.13-1.59,12.77-12.68,15-9.57,1.56,2.12-.64,7-1.76,15.81a10.63,10.63,0,0,0,1.05,5.26c.51,1.27,1.1,2.59,1.56,4A14.8,14.8,0,0,1,273.88,123.25Z"/><line class="cls-2-w" x1="129.64" y1="204.79" x2="107" y2="204.79"/><line class="cls-2-w" x1="124.08" y1="200.04" x2="107.56" y2="194.62"/><line class="cls-2-w" x1="129.08" y1="201.69" x2="124.08" y2="200.05"/><line class="cls-2-w" x1="165.63" y1="202.45" x2="164" y2="202.45"/><line class="cls-2-w" x1="186.44" y1="202.45" x2="174.17" y2="202.45"/><line class="cls-2-w" x1="165.63" y1="202.45" x2="161.22" y2="204.99"/><line class="cls-2-w" x1="185.27" y1="191.13" x2="172.61" y2="198.43"/><line class="cls-2-w" x1="187.16" y1="212.98" x2="165.65" y2="205.91"/><line class="cls-2-w" x1="131.53" y1="205.38" x2="110.41" y2="213.52"/><path class="cls-3-w" d="M174.88,206.25a13.46,13.46,0,0,1-.15,2.65c-.63,4-2.9,7-3.55,8.08-7.6,13.13-20.72,13.83-22.55,13.57-5.47-.78-16.87-5.61-20.24-11.57l0,.15c-1.56-4.12-3.67-6.79-4.47-10.83a17.13,17.13,0,0,1-.34-3.51,27,27,0,0,1,.46-4.74h0a48.61,48.61,0,0,1,1.42-5.7c2.23-7.27-5-14-1.76-16.2,2-1.34,9.24,9.52,14.64,8.79,2.51-.35,13.35,1.69,19.91,0,6.13-1.59,12.77-12.68,15-9.57,1.56,2.12-.64,7-1.76,15.81a10.63,10.63,0,0,0,1.05,5.26c.51,1.27,1.1,2.59,1.56,4A14.8,14.8,0,0,1,174.88,206.25Z"/><line class="cls-2-w" x1="337.64" y1="204.79" x2="315" y2="204.79"/><line class="cls-2-w" x1="332.08" y1="200.04" x2="315.56" y2="194.62"/><line class="cls-2-w" x1="337.08" y1="201.69" x2="332.08" y2="200.05"/><line class="cls-2-w" x1="373.63" y1="202.45" x2="372" y2="202.45"/><line class="cls-2-w" x1="394.44" y1="202.45" x2="382.17" y2="202.45"/><line class="cls-2-w" x1="373.63" y1="202.45" x2="369.22" y2="204.99"/><line class="cls-2-w" x1="393.27" y1="191.13" x2="380.61" y2="198.43"/><line class="cls-2-w" x1="395.16" y1="212.98" x2="373.65" y2="205.91"/><line class="cls-2-w" x1="339.53" y1="205.38" x2="318.41" y2="213.52"/><path class="cls-3-w" d="M382.88,206.25a13.46,13.46,0,0,1-.15,2.65c-.63,4-2.9,7-3.55,8.08-7.6,13.13-20.72,13.83-22.55,13.57-5.47-.78-16.87-5.61-20.24-11.57l0,.15c-1.56-4.12-3.67-6.79-4.47-10.83a17.13,17.13,0,0,1-.34-3.51,27,27,0,0,1,.46-4.74h0a48.61,48.61,0,0,1,1.42-5.7c2.23-7.27-5-14-1.76-16.2,2-1.34,9.24,9.52,14.64,8.79,2.51-.35,13.35,1.69,19.91,0,6.13-1.59,12.77-12.68,15-9.57,1.56,2.12-.64,7-1.76,15.81a10.63,10.63,0,0,0,1.05,5.26c.51,1.27,1.1,2.59,1.56,4A14.8,14.8,0,0,1,382.88,206.25Z"/><line class="cls-2-w" x1="24.64" y1="284.79" x2="2" y2="284.79"/><line class="cls-2-w" x1="19.08" y1="280.04" x2="2.56" y2="274.62"/><line class="cls-2-w" x1="24.08" y1="281.69" x2="19.08" y2="280.05"/><line class="cls-2-w" x1="60.63" y1="282.45" x2="59" y2="282.45"/><line class="cls-2-w" x1="81.44" y1="282.45" x2="69.17" y2="282.45"/><line class="cls-2-w" x1="60.63" y1="282.45" x2="56.22" y2="284.99"/><line class="cls-2-w" x1="80.27" y1="271.13" x2="67.61" y2="278.43"/><line class="cls-2-w" x1="82.16" y1="292.98" x2="60.65" y2="285.91"/><line class="cls-2-w" x1="26.53" y1="285.38" x2="5.41" y2="293.52"/><path class="cls-3-w" d="M69.88,286.25a13.46,13.46,0,0,1-.15,2.65c-.63,4.05-2.9,7-3.55,8.08-7.6,13.13-20.72,13.83-22.55,13.57-5.47-.78-16.87-5.61-20.24-11.57l0,.15C21.87,295,19.76,292.34,19,288.3a17.13,17.13,0,0,1-.34-3.51,27,27,0,0,1,.46-4.74h0a48.61,48.61,0,0,1,1.42-5.7c2.23-7.27-5-14-1.76-16.2,2-1.34,9.24,9.52,14.64,8.79,2.51-.35,13.35,1.69,19.91,0,6.13-1.59,12.77-12.68,15-9.57,1.56,2.12-.64,7-1.76,15.81a10.63,10.63,0,0,0,1,5.26c.51,1.27,1.1,2.59,1.56,4A14.8,14.8,0,0,1,69.88,286.25Z"/><line class="cls-2-w" x1="233.64" y1="286.79" x2="211" y2="286.79"/><line class="cls-2-w" x1="228.08" y1="282.04" x2="211.56" y2="276.62"/><line class="cls-2-w" x1="233.08" y1="283.69" x2="228.08" y2="282.05"/><line class="cls-2-w" x1="269.63" y1="284.45" x2="268" y2="284.45"/><line class="cls-2-w" x1="290.44" y1="284.45" x2="278.17" y2="284.45"/><line class="cls-2-w" x1="269.63" y1="284.45" x2="265.22" y2="286.99"/><line class="cls-2-w" x1="289.27" y1="273.13" x2="276.61" y2="280.43"/><line class="cls-2-w" x1="291.16" y1="294.98" x2="269.65" y2="287.91"/><line class="cls-2-w" x1="235.53" y1="287.38" x2="214.41" y2="295.52"/><path class="cls-3-w" d="M278.88,288.25a13.46,13.46,0,0,1-.15,2.65c-.63,4.05-2.9,7-3.55,8.08-7.6,13.13-20.72,13.83-22.55,13.57-5.47-.78-16.87-5.61-20.24-11.57l0,.15c-1.56-4.12-3.67-6.79-4.47-10.83a17.13,17.13,0,0,1-.34-3.51,27,27,0,0,1,.46-4.74h0a48.61,48.61,0,0,1,1.42-5.7c2.23-7.27-5-14-1.76-16.2,2-1.34,9.24,9.52,14.64,8.79,2.51-.35,13.35,1.69,19.91,0,6.13-1.59,12.77-12.68,15-9.57,1.56,2.12-.64,7-1.76,15.81a10.63,10.63,0,0,0,1.05,5.26c.51,1.27,1.1,2.59,1.56,4A14.8,14.8,0,0,1,278.88,288.25Z"/><path class="cls-1-w" d="M65.92,361.71c0,9.45-4.25,17.25-9.73,18.38v27H53.25v-27c-3.86-.9-7.08-5.11-8.61-10.85-2.31,6.09-6.27,10.09-10.77,10.09h0v28.13l-2.61-.75V378.83c-5.87-2.15-10.29-11.25-10.29-22.15,0-12.49,12.95-22.62,12.95-22.62s10.26,8,12.51,18.62a35.67,35.67,0,0,1,8.43-9.5S65.92,351.47,65.92,361.71Z"/><line class="cls-2-w" x1="131.4" y1="368.2" x2="108.76" y2="368.2"/><line class="cls-2-w" x1="125.84" y1="363.45" x2="109.32" y2="358.02"/><line class="cls-2-w" x1="130.83" y1="365.09" x2="125.84" y2="363.45"/><line class="cls-2-w" x1="167.38" y1="365.85" x2="165.75" y2="365.85"/><line class="cls-2-w" x1="188.2" y1="365.85" x2="175.92" y2="365.85"/><line class="cls-2-w" x1="167.38" y1="365.85" x2="162.98" y2="368.39"/><line class="cls-2-w" x1="187.03" y1="354.53" x2="174.37" y2="361.83"/><line class="cls-2-w" x1="188.92" y1="376.38" x2="167.41" y2="369.32"/><line class="cls-2-w" x1="133.29" y1="368.78" x2="112.16" y2="376.92"/><path class="cls-3-w" d="M176.64,369.65a13.46,13.46,0,0,1-.15,2.65c-.64,4.05-2.9,7-3.55,8.09-7.6,13.13-20.72,13.83-22.56,13.57-5.46-.79-16.86-5.62-20.23-11.57l0,.14c-1.55-4.12-3.66-6.79-4.47-10.83a17.79,17.79,0,0,1-.33-3.5,27,27,0,0,1,.46-4.75h0a48.72,48.72,0,0,1,1.42-5.71c2.22-7.26-5-14-1.76-16.2,2-1.33,9.23,9.52,14.64,8.79,2.51-.35,13.35,1.69,19.91,0,6.13-1.59,12.76-12.67,15-9.57,1.55,2.13-.64,7-1.76,15.82a10.6,10.6,0,0,0,1.05,5.25c.51,1.28,1.1,2.6,1.56,4A14.88,14.88,0,0,1,176.64,369.65Z"/><path class="cls-1-w" d="M277,361.39c0,9.45-4.24,17.26-9.72,18.39v27h-2.94v-27c-3.87-.9-7.09-5.1-8.61-10.84C253.4,375,249.44,379,244.94,379h-.05v28.13l-2.61-.76V378.51c-5.87-2.14-10.29-11.24-10.29-22.14,0-12.5,12.95-22.63,12.95-22.63s10.27,8,12.52,18.62a35.72,35.72,0,0,1,8.42-9.5S277,351.16,277,361.39Z"/><path class="cls-1-w" d="M176.46,444c0,9.46-4.25,17.26-9.73,18.39v27h-2.94v-27c-3.86-.9-7.09-5.1-8.61-10.84-2.32,6.08-6.28,10.09-10.78,10.09h0v28.13l-2.61-.75V461.13c-5.88-2.14-10.29-11.24-10.29-22.14,0-12.49,12.94-22.62,12.94-22.62s10.27,8,12.52,18.61a35.72,35.72,0,0,1,8.42-9.5S176.46,433.78,176.46,444Z"/><path class="cls-1-w" d="M277.46,526.58c0,9.46-4.25,17.26-9.73,18.39v27h-2.94v-27c-3.86-.89-7.09-5.1-8.61-10.84-2.32,6.08-6.28,10.09-10.78,10.09h0v28.13l-2.61-.75V543.7c-5.88-2.14-10.29-11.24-10.29-22.14,0-12.49,12.94-22.62,12.94-22.62s10.27,8,12.52,18.61a35.72,35.72,0,0,1,8.42-9.5S277.46,516.35,277.46,526.58Z"/><path class="cls-1-w" d="M66.53,528.27c0,9.45-4.25,17.25-9.73,18.38v27H53.86v-27c-3.86-.9-7.08-5.11-8.61-10.85-2.31,6.09-6.27,10.09-10.77,10.09h0V574l-2.61-.75V545.39c-5.87-2.15-10.29-11.25-10.29-22.15,0-12.49,12.95-22.62,12.95-22.62s10.26,8,12.51,18.62a35.67,35.67,0,0,1,8.43-9.5S66.53,518,66.53,528.27Z"/><path class="cls-1-w" d="M380.84,446.81c0,9.45-4.25,17.25-9.73,18.38v27h-2.94v-27c-3.86-.9-7.08-5.11-8.61-10.85-2.31,6.09-6.27,10.09-10.77,10.09h-.05v28.13l-2.61-.75V463.93c-5.88-2.15-10.29-11.25-10.29-22.15,0-12.49,13-22.62,13-22.62s10.26,8,12.51,18.62a35.67,35.67,0,0,1,8.43-9.5S380.84,436.57,380.84,446.81Z"/><line class="cls-2-w" x1="341.14" y1="368.54" x2="318.5" y2="368.54"/><line class="cls-2-w" x1="335.58" y1="363.79" x2="319.06" y2="358.36"/><line class="cls-2-w" x1="340.58" y1="365.43" x2="335.58" y2="363.79"/><line class="cls-2-w" x1="377.13" y1="366.19" x2="375.5" y2="366.19"/><line class="cls-2-w" x1="397.94" y1="366.19" x2="385.67" y2="366.19"/><line class="cls-2-w" x1="377.13" y1="366.19" x2="372.72" y2="368.73"/><line class="cls-2-w" x1="396.77" y1="354.87" x2="384.11" y2="362.17"/><line class="cls-2-w" x1="398.66" y1="376.72" x2="377.15" y2="369.66"/><line class="cls-2-w" x1="343.03" y1="369.12" x2="321.91" y2="377.26"/><path class="cls-3-w" d="M386.38,370a13.46,13.46,0,0,1-.15,2.65c-.63,4.05-2.9,7-3.55,8.09-7.6,13.13-20.72,13.83-22.55,13.57-5.47-.79-16.87-5.62-20.24-11.57l0,.14c-1.56-4.12-3.67-6.79-4.47-10.83a17,17,0,0,1-.34-3.5,27,27,0,0,1,.46-4.75h0a48.72,48.72,0,0,1,1.42-5.71c2.23-7.26-5-14-1.76-16.2,2-1.33,9.24,9.52,14.64,8.79,2.51-.34,13.35,1.69,19.91,0,6.13-1.59,12.77-12.67,15-9.57,1.56,2.13-.64,7-1.76,15.82a10.6,10.6,0,0,0,1.05,5.25c.51,1.28,1.1,2.6,1.56,4A14.88,14.88,0,0,1,386.38,370Z"/><line class="cls-2-w" x1="26.14" y1="456.54" x2="3.5" y2="456.54"/><line class="cls-2-w" x1="20.58" y1="451.79" x2="4.06" y2="446.36"/><line class="cls-2-w" x1="25.58" y1="453.43" x2="20.58" y2="451.79"/><line class="cls-2-w" x1="62.13" y1="454.19" x2="60.5" y2="454.19"/><line class="cls-2-w" x1="82.94" y1="454.19" x2="70.67" y2="454.19"/><line class="cls-2-w" x1="62.13" y1="454.19" x2="57.72" y2="456.73"/><line class="cls-2-w" x1="81.77" y1="442.87" x2="69.11" y2="450.17"/><line class="cls-2-w" x1="83.66" y1="464.72" x2="62.15" y2="457.66"/><line class="cls-2-w" x1="28.03" y1="457.12" x2="6.91" y2="465.26"/><path class="cls-3-w" d="M71.38,458a13.46,13.46,0,0,1-.15,2.65c-.63,4.05-2.9,7-3.55,8.09C60.08,481.86,47,482.56,45.13,482.3c-5.47-.79-16.87-5.62-20.24-11.57l0,.14c-1.56-4.12-3.67-6.79-4.47-10.83a17,17,0,0,1-.34-3.5,27,27,0,0,1,.46-4.75h0A48.72,48.72,0,0,1,22,446.08c2.23-7.26-5-14-1.76-16.2,2-1.33,9.24,9.52,14.64,8.79,2.51-.34,13.35,1.69,19.91,0,6.13-1.59,12.77-12.67,15-9.57,1.56,2.13-.64,7-1.76,15.82a10.6,10.6,0,0,0,1,5.25c.51,1.28,1.1,2.6,1.56,4A14.88,14.88,0,0,1,71.38,458Z"/><line class="cls-2-w" x1="232.14" y1="455.54" x2="209.5" y2="455.54"/><line class="cls-2-w" x1="226.58" y1="450.79" x2="210.06" y2="445.36"/><line class="cls-2-w" x1="231.58" y1="452.43" x2="226.58" y2="450.79"/><line class="cls-2-w" x1="268.13" y1="453.19" x2="266.5" y2="453.19"/><line class="cls-2-w" x1="288.94" y1="453.19" x2="276.67" y2="453.19"/><line class="cls-2-w" x1="268.13" y1="453.19" x2="263.72" y2="455.73"/><line class="cls-2-w" x1="287.77" y1="441.87" x2="275.11" y2="449.17"/><line class="cls-2-w" x1="289.66" y1="463.72" x2="268.15" y2="456.66"/><line class="cls-2-w" x1="234.03" y1="456.12" x2="212.91" y2="464.26"/><path class="cls-3-w" d="M277.38,457a13.46,13.46,0,0,1-.15,2.65c-.63,4.05-2.9,7-3.55,8.09-7.6,13.13-20.72,13.83-22.55,13.57-5.47-.79-16.87-5.62-20.24-11.57l0,.14c-1.56-4.12-3.67-6.79-4.47-10.83a17,17,0,0,1-.34-3.5,27,27,0,0,1,.46-4.75h0a48.72,48.72,0,0,1,1.42-5.71c2.23-7.26-5-14-1.76-16.2,2-1.33,9.24,9.52,14.64,8.79,2.51-.34,13.35,1.69,19.91,0,6.13-1.59,12.77-12.67,15-9.57,1.56,2.13-.64,7-1.76,15.82a10.6,10.6,0,0,0,1.05,5.25c.51,1.28,1.1,2.6,1.56,4A14.88,14.88,0,0,1,277.38,457Z"/><line class="cls-2-w" x1="133.14" y1="538.54" x2="110.5" y2="538.54"/><line class="cls-2-w" x1="127.58" y1="533.79" x2="111.06" y2="528.36"/><line class="cls-2-w" x1="132.58" y1="535.43" x2="127.58" y2="533.79"/><line class="cls-2-w" x1="169.13" y1="536.19" x2="167.5" y2="536.19"/><line class="cls-2-w" x1="189.94" y1="536.19" x2="177.67" y2="536.19"/><line class="cls-2-w" x1="169.13" y1="536.19" x2="164.72" y2="538.73"/><line class="cls-2-w" x1="188.77" y1="524.87" x2="176.11" y2="532.17"/><line class="cls-2-w" x1="190.66" y1="546.72" x2="169.15" y2="539.66"/><line class="cls-2-w" x1="135.03" y1="539.12" x2="113.91" y2="547.26"/><path class="cls-3-w" d="M178.38,540a13.46,13.46,0,0,1-.15,2.65c-.63,4.05-2.9,7-3.55,8.09-7.6,13.13-20.72,13.83-22.55,13.57-5.47-.79-16.87-5.62-20.24-11.57l0,.14c-1.56-4.12-3.67-6.79-4.47-10.83a17,17,0,0,1-.34-3.5,27,27,0,0,1,.46-4.75h0a48.72,48.72,0,0,1,1.42-5.71c2.23-7.26-5-14-1.76-16.2,2-1.33,9.24,9.52,14.64,8.79,2.51-.34,13.35,1.69,19.91,0,6.13-1.59,12.77-12.67,15-9.57,1.56,2.13-.64,7-1.76,15.82a10.6,10.6,0,0,0,1.05,5.25c.51,1.28,1.1,2.6,1.56,4A14.88,14.88,0,0,1,178.38,540Z"/><line class="cls-2-w" x1="341.14" y1="538.54" x2="318.5" y2="538.54"/><line class="cls-2-w" x1="335.58" y1="533.79" x2="319.06" y2="528.36"/><line class="cls-2-w" x1="340.58" y1="535.43" x2="335.58" y2="533.79"/><line class="cls-2-w" x1="377.13" y1="536.19" x2="375.5" y2="536.19"/><line class="cls-2-w" x1="397.94" y1="536.19" x2="385.67" y2="536.19"/><line class="cls-2-w" x1="377.13" y1="536.19" x2="372.72" y2="538.73"/><line class="cls-2-w" x1="396.77" y1="524.87" x2="384.11" y2="532.17"/><line class="cls-2-w" x1="398.66" y1="546.72" x2="377.15" y2="539.66"/><line class="cls-2-w" x1="343.03" y1="539.12" x2="321.91" y2="547.26"/><path class="cls-3-w" d="M386.38,540a13.46,13.46,0,0,1-.15,2.65c-.63,4.05-2.9,7-3.55,8.09-7.6,13.13-20.72,13.83-22.55,13.57-5.47-.79-16.87-5.62-20.24-11.57l0,.14c-1.56-4.12-3.67-6.79-4.47-10.83a17,17,0,0,1-.34-3.5,27,27,0,0,1,.46-4.75h0a48.72,48.72,0,0,1,1.42-5.71c2.23-7.26-5-14-1.76-16.2,2-1.33,9.24,9.52,14.64,8.79,2.51-.34,13.35,1.69,19.91,0,6.13-1.59,12.77-12.67,15-9.57,1.56,2.13-.64,7-1.76,15.82a10.6,10.6,0,0,0,1.05,5.25c.51,1.28,1.1,2.6,1.56,4A14.88,14.88,0,0,1,386.38,540Z"/></g></g></svg>