<svg xmlns="http://www.w3.org/2000/svg" viewBox="0 0 111.47 77.47"><defs><style>.cls-1{fill:none;}.cls-1,.cls-2{stroke:#000;stroke-miterlimit:10;stroke-width:3px;}.cls-2{fill:#fff;}</style></defs><g id="Layer_2" data-name="Layer 2"><g id="Layer_1-2" data-name="Layer 1"><line class="cls-1" x1="31.35" y1="40.24" y2="40.24"/><line class="cls-1" x1="23.65" y1="33.67" x2="0.78" y2="26.16"/><line class="cls-1" x1="30.57" y1="35.95" x2="23.65" y2="33.68"/><line class="cls-1" x1="81.18" y1="37" x2="78.93" y2="37"/><line class="cls-1" x1="110.01" y1="37" x2="93.01" y2="37"/><line class="cls-1" x1="81.18" y1="37" x2="75.08" y2="40.51"/><line class="cls-1" x1="108.39" y1="21.32" x2="90.85" y2="31.43"/><line class="cls-1" x1="111" y1="51.58" x2="81.21" y2="41.8"/><line class="cls-1" x1="33.97" y1="41.05" x2="4.72" y2="52.32"/><path class="cls-2" d="M94,42.26a19,19,0,0,1-.21,3.67c-.88,5.61-4,9.64-4.92,11.2C78.35,75.31,60.18,76.28,57.64,75.92c-7.57-1.09-23.35-7.78-28-16l.05.2c-2.15-5.71-5.07-9.4-6.19-15A24.7,24.7,0,0,1,23,40.25a37.76,37.76,0,0,1,.64-6.57h0a69.18,69.18,0,0,1,2-7.9C28.7,15.71,18.68,6.34,23.18,3.34,26,1.49,36,16.52,43.46,15.51c3.47-.48,18.48,2.34,27.57,0C79.51,13.31,88.7-2,91.84,2.26,94,5.2,91,12,89.4,24.16c-.31,2.44.46,4.79,1.45,7.27C91.56,33.2,92.38,35,93,37A20.11,20.11,0,0,1,94,42.26Z"/></g></g></svg>