<svg width="140" height="140" xmlns="http://www.w3.org/2000/svg" viewBox="0 0 524 524.64"><defs><style>.cls-1{fill:none;}.cls-1,.cls-2,.cls-4{stroke:#000;stroke-miterlimit:10;}.cls-1,.cls-2{stroke-width:5px;}.cls-2{fill:#fcfcfc;}.cls-3{fill:#020202;}.cls-4{font-size:79px;fill:#fff;font-family:FredokaOne-Regular, Fredoka One;}.cls-5{fill:#050505;}.cls-6{fill:#232323;}</style></defs><g id="Layer_2" data-name="Layer 2"><g id="Layer_10" data-name="Layer 10"><line class="cls-1" x1="216" y1="188.5" x2="158" y2="188.5"/><line class="cls-1" x1="214.55" y1="180.55" x2="159.45" y2="162.45"/><line class="cls-1" x1="361.5" y1="182.5" x2="304" y2="182.5"/><line class="cls-1" x1="358.5" y1="153.5" x2="296.89" y2="189"/><line class="cls-1" x1="363.34" y1="209.47" x2="308.23" y2="191.37"/><line class="cls-1" x1="220.85" y1="190" x2="166.72" y2="210.85"/></g><g id="Layer_9" data-name="Layer 9"><path class="cls-2" d="M173,284c2.62-2.6,18.16-12.16,22.88-34.06,2.61-12.11,16.56-18.33,11.62-31.44-7.2-19.1-19-26-7.5-63.5,5.71-18.63-12.84-36-4.5-41.5,5.15-3.42,23.66,24.37,37.5,22.5,6.43-.87,34.19,4.34,51,0,15.69-4.06,32.69-32.45,38.5-24.5,4,5.44-1.63,18-4.5,40.5-1.33,10.45,7.95,20,8.5,33.5.57,13.9-8.31,23.66-9.5,27.5-3.3,10.62,18.53,24.67,19.5,39.5.72,11,2.12,19.29,2.5,26.5.5,9.34,11.15,6.52,12,11,2.1,11.06-19.54,29.79-48.34,39.94A120,120,0,0,1,265,337a112.06,112.06,0,0,1-34.61-5.16,113.4,113.4,0,0,1-36.78-19C182.83,304.2,165.63,291.31,173,284Z"/></g><g id="Layer_1-2" data-name="Layer 1"><path d="M262,5A257.07,257.07,0,0,1,362,498.81,257.07,257.07,0,0,1,162,25.19,255.34,255.34,0,0,1,262,5m0-5C117.3,0,0,117.3,0,262S117.3,524,262,524,524,406.7,524,262,406.7,0,262,0Z"/><path class="cls-3" d="M.08,261.53c0,145.25,117.08,263,261.5,263s261.5-117.75,261.5-263"/><polygon class="cls-3" points="76.81 288.89 82.4 290.5 82.4 212.47 76.81 210.86 76.81 288.89"/><rect class="cls-3" x="123.94" y="211.66" width="6.28" height="78.03"/><rect class="cls-3" x="419.48" y="223.23" width="7.85" height="78.03"/><rect class="cls-3" x="453.26" y="223.23" width="6.28" height="78.03"/><text class="cls-4" transform="matrix(0.32, 0.95, -0.95, 0.32, 28.9, 317.23)">N</text><text class="cls-4" transform="translate(51.57 380.7) rotate(54.67)">O</text><text class="cls-4" transform="matrix(0.77, 0.63, -0.63, 0.77, 90.56, 434.15)">T</text><text class="cls-4" transform="translate(141.98 472.98) rotate(28.2)"> </text><text class="cls-4" transform="translate(162.77 483.93) rotate(22.46)"> </text><text class="cls-4" transform="matrix(0.96, 0.29, -0.29, 0.96, 184.57, 492.75)"> </text><text class="cls-4" transform="matrix(1, 0.07, -0.07, 1, 211.02, 502.55)">M</text><text class="cls-4" transform="translate(290.55 505.33) rotate(-13.52)">Y</text><text class="cls-4" transform="translate(349 489.01) rotate(-24.21)"> </text><text class="cls-4" transform="translate(370.35 479.22) rotate(-29.94)"> </text><text class="cls-4" transform="translate(390.58 467.37) rotate(-35.62)"> </text><text class="cls-4" transform="translate(412.7 452.67) rotate(-46.02)">C</text><text class="cls-4" transform="translate(455.2 407.69) rotate(-61.65)">A</text><text class="cls-4" transform="translate(481.2 360.79) rotate(-74.23)">T</text><path class="cls-5" d="M54.82,182c0,26.71,12.39,48.36,27.68,48.36S110.18,208.7,110.18,182,82.5,133.63,82.5,133.63,54.82,155.28,54.82,182Z"/><path d="M395.91,188.21c0,26.71,12.39,48.36,27.67,48.36s27.68-21.65,27.68-48.36-27.68-48.36-27.68-48.36S395.91,161.5,395.91,188.21Z"/><path class="cls-6" d="M103.5,192.74c0,21.88,10.64,39.61,23.76,39.61S151,214.62,151,192.74s-23.76-39.62-23.76-39.62S103.5,170.85,103.5,192.74Z"/><path class="cls-6" d="M429.3,200.1c0,21.88,10.64,39.62,23.76,39.62S476.82,222,476.82,200.1s-23.76-39.62-23.76-39.62S429.3,178.22,429.3,200.1Z"/></g></g></svg>
