<svg xmlns="http://www.w3.org/2000/svg" viewBox="0 0 532 532"><defs><style>.cls-1,.cls-2{fill:none;}.cls-1,.cls-4{stroke:#1e98a8;}.cls-1,.cls-2,.cls-4{stroke-miterlimit:10;}.cls-1{stroke-width:5px;}.cls-2{stroke:#ffc755;}.cls-2,.cls-4{stroke-width:8px;}.cls-3{fill:#1e98a8;}.cls-4{fill:#fafcfb;}.cls-5{fill:#ffc755;}.cls-6{font-size:79px;fill:#fff;font-family:FredokaOne-Regular, Fredoka One;}.cls-7{fill:#8aff7f;}.cls-8{fill:#00c95a;}</style></defs><g id="Layer_2" data-name="Layer 2"><g id="Layer_5" data-name="Layer 5"><line class="cls-1" x1="220" y1="192.5" x2="162" y2="192.5"/><line class="cls-1" x1="218.55" y1="184.55" x2="163.45" y2="166.45"/><line class="cls-1" x1="365.5" y1="186.5" x2="308" y2="186.5"/><line class="cls-1" x1="362.5" y1="157.5" x2="300.89" y2="193"/><line class="cls-1" x1="367.34" y1="213.47" x2="312.23" y2="195.37"/><line class="cls-1" x1="224.85" y1="194" x2="170.72" y2="214.85"/><circle class="cls-2" cx="266" cy="266" r="262"/><polygon class="cls-3" points="80.81 292.89 86.4 294.5 86.4 216.47 80.81 214.86 80.81 292.89"/><rect class="cls-3" x="127.94" y="215.66" width="6.28" height="78.03"/><rect class="cls-3" x="423.48" y="227.23" width="7.85" height="78.03"/><rect class="cls-3" x="457.26" y="227.23" width="6.28" height="78.03"/><path class="cls-4" d="M177,288c2.62-2.6,18.16-12.16,22.88-34.06,2.61-12.11,16.56-18.33,11.62-31.44-7.2-19.1-19-26-7.5-63.5,5.71-18.63-12.84-36-4.5-41.5,5.15-3.42,23.66,24.37,37.5,22.5,6.43-.87,34.19,4.34,51,0,15.69-4.06,32.69-32.45,38.5-24.5,4,5.44-1.63,18-4.5,40.5-1.33,10.45,7.95,20,8.5,33.5.57,13.9-8.31,23.66-9.5,27.5-3.3,10.62,18.53,24.67,19.5,39.5.72,11,2.12,19.29,2.5,26.5.5,9.34,11.15,6.52,12,11,2.1,11.06-19.54,29.79-48.34,39.94A120,120,0,0,1,269,341a112.06,112.06,0,0,1-34.61-5.16,113.4,113.4,0,0,1-36.78-19C186.83,308.2,169.63,295.31,177,288Z"/><path class="cls-5" d="M4.08,265.53c0,145.25,117.08,263,261.5,263s261.5-117.75,261.5-263Z"/><text class="cls-6" transform="matrix(0.32, 0.95, -0.95, 0.32, 32.9, 321.23)">N</text><text class="cls-6" transform="translate(55.57 384.7) rotate(54.67)">O</text><text class="cls-6" transform="matrix(0.77, 0.63, -0.63, 0.77, 94.56, 438.15)">T</text><text class="cls-6" transform="translate(145.98 476.98) rotate(28.2)"> </text><text class="cls-6" transform="translate(166.77 487.93) rotate(22.46)"> </text><text class="cls-6" transform="matrix(0.96, 0.29, -0.29, 0.96, 188.57, 496.75)"> </text><text class="cls-6" transform="matrix(1, 0.07, -0.07, 1, 215.02, 506.55)">M</text><text class="cls-6" transform="translate(294.55 509.33) rotate(-13.52)">Y</text><text class="cls-6" transform="translate(353 493.01) rotate(-24.21)"> </text><text class="cls-6" transform="translate(374.35 483.22) rotate(-29.94)"> </text><text class="cls-6" transform="translate(394.58 471.37) rotate(-35.62)"> </text><text class="cls-6" transform="translate(416.7 456.67) rotate(-46.02)">C</text><text class="cls-6" transform="translate(459.2 411.69) rotate(-61.65)">A</text><text class="cls-6" transform="translate(485.2 364.79) rotate(-74.23)">T</text><path class="cls-7" d="M58.82,186c0,26.71,12.39,48.36,27.68,48.36S114.18,212.7,114.18,186,86.5,137.63,86.5,137.63,58.82,159.28,58.82,186Z"/><path class="cls-7" d="M399.91,192.21c0,26.71,12.39,48.36,27.67,48.36s27.68-21.65,27.68-48.36-27.68-48.36-27.68-48.36S399.91,165.5,399.91,192.21Z"/><path class="cls-8" d="M107.5,196.74c0,21.88,10.64,39.61,23.76,39.61S155,218.62,155,196.74s-23.76-39.62-23.76-39.62S107.5,174.85,107.5,196.74Z"/><path class="cls-8" d="M433.3,204.1c0,21.88,10.64,39.62,23.76,39.62S480.82,226,480.82,204.1s-23.76-39.62-23.76-39.62S433.3,182.22,433.3,204.1Z"/></g></g></svg>