<svg xmlns="http://www.w3.org/2000/svg" viewBox="0 0 332.81 384.94">
<defs>
<style>
.cls-1 {
  fill:none;
  }
  .cls-1,.cls-2 {
    stroke:#000;
    stroke-miterlimit:10;
    stroke-width:4px;
    }
  .cls-2{
    fill:#8551a8;
    }
  .cls-3{
    fill:#fff;
    }
  .cls-4{
    fill:#B18EC9;
    }
  </style>
          </defs><g id="Layer_2" data-name="Layer 2"><g id="Layer_4" data-name="Layer 4"><line class="cls-1" x1="93.82" y1="122.12" y2="122.12"/><line class="cls-1" x1="70.77" y1="101.73" x2="2.33" y2="78.44"/><line class="cls-1" x1="91.48" y1="108.8" x2="70.77" y2="101.76"/><line class="cls-1" x1="242.93" y1="112.06" x2="236.17" y2="112.06"/><line class="cls-1" x1="329.19" y1="112.06" x2="278.31" y2="112.06"/><line class="cls-1" x1="242.93" y1="112.06" x2="224.67" y2="122.96"/><line class="cls-1" x1="324.34" y1="63.46" x2="271.86" y2="94.79"/><line class="cls-1" x1="332.17" y1="157.27" x2="243.03" y2="126.93"/><line class="cls-1" x1="101.67" y1="124.63" x2="14.11" y2="159.57"/><path class="cls-2" d="M281.15,128.36a61,61,0,0,1-.63,11.38c-2.63,17.39-11,30.66-14.72,34.72-31.56,34.15-85.07,215.39-86.8,208.27-1.62-6.68-76.15-186.29-90.35-199.06C77,173.21,73.48,154.53,70.13,137.16a78.94,78.94,0,0,1-1.41-15,120.81,120.81,0,0,1,1.92-20.37v0a219.74,219.74,0,0,1,5.89-24.5C85.75,46,55.76,17,69.23,7.69,77.58,2,107.5,48.56,129.91,45.42c10.39-1.48,55.3,7.26,82.51,0C237.79,38.6,265.29-9,274.69,4.34c6.43,9.12-2.67,30.23-7.3,67.9-.93,7.57,1.37,14.85,4.33,22.54,2.13,5.49,4.58,11.16,6.47,17.27A64.69,64.69,0,0,1,281.15,128.36Z"/><path class="cls-3" d="M173.14,146.68c-2.36-1.09-24-11.54-24-24,0-13,10.72-13,24.31-13h.37c13.54,0,23.32,0,23.32,13C197.14,135.14,175.49,145.59,173.14,146.68Z"/><path class="cls-3" d="M173.82,110.23c14.57,0,22.82.58,22.82,12.5s-20.34,21.9-23.5,23.4c-3.16-1.5-23.5-11.6-23.5-23.4s9-12.5,23.81-12.5h.37m0-1h-.37c-13.45,0-24.81,0-24.81,13.5s24.5,24.5,24.5,24.5,24.5-11,24.5-24.5-10.38-13.5-23.82-13.5Z"/><path class="cls-4" d="M173.64,255.32l-36-49.09q35,10.65,72,0Z"/></g></g>
  </svg>