<svg width="100" height="100" viewBox="0 0 254 326" fill="none" xmlns="http://www.w3.org/2000/svg">
  <g id="Frame 1">
    <g className="darkgroup" id="darkgroup">
      <path id="dark 1" d="M57.4239 18C13.562 111 9.42389 177 50.6636 197V285H65.6165V197C110.424 175 111.184 101 57.4239 18Z" fill="#444444"/>
      <path id="dark 2" d="M166.424 9C122.562 102 118.424 168 159.664 188V276H174.617V188C219.424 166 220.184 92 166.424 9Z" fill="#444444"/>
    </g>
    <g className="lightgroup" id="lightgroup">
      <path id="green 1" d="M70.4239 31C26.562 124 22.4239 190 63.6636 210V298H78.6165V210C123.424 188 124.184 114 70.4239 31Z" fill="black"/>
      <path id="green 2" d="M177.424 18C133.562 111 129.424 177 170.664 197V285H185.617V197C230.424 175 231.184 101 177.424 18Z" fill="black"/>
    </g>
  </g>
  <style>
    .lightgroup {
      animation-name: lightgroupMoves;
      animation-duration: 10s;
      animation-iteration-count: infinite;
      animation-direction: alternate;
      transform-origin: 50% 50%;
      
    }

    .darkgroup {
      animation-name: darkgroupMoves;
      animation-duration: 10s;
      animation-iteration-count: infinite;
      animation-direction: alternate;
      transform-origin: 50% 50%;
    }

    @keyframes lightgroupMoves {
      0%   { transform: translate(0, 7px); }
      20%  { transform: translate(0, -7px); }
      40%  { transform: translate(0, 8px); }
      60%  { transform: translate(0, -8px); }
      80%  { transform: translate(0, 6px); }
      100% { transform: translate(0, -6px); }
    }

    @keyframes darkgroupMoves {
      0%   { transform: translate(0, -7px); }
      20%  { transform: translate(0, 7px); }
      40%  { transform: translate(0, -8px); }
      60%  { transform: translate(0, 8px); }
      80%  { transform: translate(0, -6px); }
      100% { transform: translate(0, 6px); }
    }
  </style>
</svg>
