<svg width="70" height="70" xmlns="http://www.w3.org/2000/svg" viewBox="0 0 132.92 158.11"><defs><style>.cls-1{fill:#fbea5e;}.cls-2{fill:#fbd25c;}.cls-3{fill:#ff2d0a;}.cls-3,.cls-4,.cls-5{stroke:#000;stroke-miterlimit:10;}.cls-4{fill:#e96200;}.cls-5{fill:none;}</style></defs><g id="Layer_2" data-name="Layer 2"><g id="Layer_5" data-name="Layer 5"><path class="cls-1" d="M.57,145.75l23-120,14,69,29-93,26,91,12-70,27.76,123C80.88,161.53,36.9,161.65.57,145.75Z"/><path class="cls-2" d="M66.57,5l26,89.11,12-68.54,27.76,120.44C74.36,129.23,63.46-9,66.57,5Z"/><polygon class="cls-3" points="66.33 79.94 49.83 96.7 49.83 130.3 64.83 145.7 80.83 129.7 80.83 99.54 66.33 79.94"/><polygon class="cls-4" points="65.33 90.75 57.83 99.7 57.83 128.27 65.33 134.7 71.83 126.7 71.83 100.22 65.33 90.75"/><line class="cls-5" x1="66.33" y1="79.94" x2="65.33" y2="90.75"/><line class="cls-5" x1="57.83" y1="99.7" x2="49.83" y2="96.7"/><line class="cls-5" x1="57.83" y1="128.27" x2="49.83" y2="130.3"/><line class="cls-5" x1="64.83" y1="145.7" x2="65.33" y2="134.7"/><line class="cls-5" x1="71.83" y1="126.7" x2="80.83" y2="129.7"/><line class="cls-5" x1="80.83" y1="99.54" x2="71.83" y2="100.22"/></g><g id="Layer_3" data-name="Layer 3"><path class="cls-5" d="M.57,145.75l23-120,14,69,29-93,26,91,12-67.14,27.76,120.44C85.79,161.31,41.78,161.72.57,145.75Z"/></g></g></svg>