<svg xmlns="http://www.w3.org/2000/svg" viewBox="0 0 132.92 158.11"><defs><style>.cls-1{fill:#51d7d0;}.cls-2{fill:#63e2b9;}.cls-2,.cls-3,.cls-4{stroke:#000;stroke-miterlimit:10;}.cls-3{fill:#c2e2d7;}.cls-4{fill:none;}.cls-5{fill:#a2d7e4;}</style></defs><g id="Layer_2" data-name="Layer 2"><g id="Layer_5" data-name="Layer 5"><path class="cls-1" d="M.12,145.41l23-120,14,69,29-93,26,91,12-70,27.77,123C80.44,161.2,36.46,161.32.12,145.41Z"/><polygon class="cls-2" points="65.89 79.6 49.39 96.37 49.39 129.97 64.39 145.37 80.39 129.37 80.39 99.21 65.89 79.6"/><polygon class="cls-3" points="64.89 90.42 57.39 99.37 57.39 127.94 64.89 134.36 71.39 126.37 71.39 99.88 64.89 90.42"/><line class="cls-4" x1="65.89" y1="79.6" x2="64.89" y2="90.42"/><line class="cls-4" x1="57.39" y1="99.37" x2="49.39" y2="96.37"/><line class="cls-4" x1="57.39" y1="127.94" x2="49.39" y2="129.97"/><line class="cls-4" x1="64.39" y1="145.37" x2="64.89" y2="134.36"/><line class="cls-4" x1="71.39" y1="126.37" x2="80.39" y2="129.37"/><line class="cls-4" x1="80.39" y1="99.21" x2="71.39" y2="99.88"/><path class="cls-5" d="M66.37,2.72,92.48,92.94l12-69.4,27.89,122C74.19,128.46,63.25-11.48,66.37,2.72Z"/></g><g id="Layer_3" data-name="Layer 3"><path class="cls-4" d="M.57,145.75l23-120,14,69,29-93,26,91,12-67.14,27.76,120.44C85.79,161.31,41.78,161.72.57,145.75Z"/></g></g></svg>