<svg xmlns="http://www.w3.org/2000/svg" viewBox="0 0 133.47 158.11"><defs><style>.cls-1{fill:#8eea99;}.cls-2{fill:#c2ed77;}.cls-2,.cls-3,.cls-4{stroke:#000;stroke-miterlimit:10;}.cls-3{fill:#fbea5e;}.cls-4{fill:none;}.cls-5{fill:#b3e2f3;}</style></defs><g id="Layer_2" data-name="Layer 2"><g id="Layer_5" data-name="Layer 5"><path class="cls-1" d="M0,145.61l23-120,14,69,29-93,26,91,12-70,27.77,123C80.31,161.39,36.33,161.52,0,145.61Z"/><polygon class="cls-2" points="65.77 79.8 49.27 96.56 49.27 130.17 64.27 145.56 80.27 129.56 80.27 99.41 65.77 79.8"/><polygon class="cls-3" points="64.77 90.62 57.27 99.56 57.27 128.14 64.77 134.56 71.27 126.56 71.27 100.08 64.77 90.62"/><line class="cls-4" x1="65.76" y1="79.8" x2="64.76" y2="90.62"/><line class="cls-4" x1="57.26" y1="99.56" x2="49.26" y2="96.56"/><line class="cls-4" x1="57.26" y1="128.14" x2="49.26" y2="130.17"/><line class="cls-4" x1="64.26" y1="145.56" x2="64.76" y2="134.56"/><line class="cls-4" x1="71.26" y1="126.56" x2="80.26" y2="129.56"/><line class="cls-4" x1="80.26" y1="99.41" x2="71.26" y2="100.08"/><path class="cls-5" d="M66.07,2.3,92,93.05l12-69.81,27.73,122.67C73.86,128.78,63-12,66.07,2.3Z"/></g><g id="Layer_3" data-name="Layer 3"><path class="cls-4" d="M1.12,145.75l23-120,14,69,29-93,26,91,12-67.14,27.76,120.44C86.33,161.31,42.33,161.72,1.12,145.75Z"/></g></g></svg>