<svg xmlns="http://www.w3.org/2000/svg" viewBox="0 0 332.65 234.88">
<defs>
<style>
.cls-1,.cls-3{fill:none;}
.cls-1,.cls-2,.cls-3{stroke:#ed1c24;stroke-miterlimit:10;}
.cls-1{stroke-width:10px;}
.cls-2{fill:#fff;}
.cls-2,.cls-3{stroke-width:10px;}
</style>
</defs>
<g id="Layer_2" data-name="Layer 2">
<g id="Layer_1-2" data-name="Layer 1">
<line class="cls-1" x1="93.82" y1="122.12" y2="122.12"/>
<line class="cls-1" x1="70.77" y1="101.73" x2="2.33" y2="78.44"/>
<line class="cls-1" x1="91.48" y1="108.8" x2="70.77" y2="101.76"/>
<line class="cls-1" x1="242.93" y1="112.06" x2="236.17" y2="112.06"/>
<line class="cls-1" x1="329.19" y1="112.06" x2="278.31" y2="112.06"/>
<line class="cls-1" x1="242.93" y1="112.06" x2="224.67" y2="122.96"/>
<line class="cls-1" x1="324.34" y1="63.46" x2="271.86" y2="94.79"/>
<line class="cls-1" x1="332.17" y1="157.27" x2="243.03" y2="126.93"/>
<line class="cls-1" x1="101.67" y1="124.63" x2="14.11" y2="159.57"/>
<path class="cls-2" d="M281.29,128.36a61.86,61.86,0,0,1-.63,11.38c-2.64,17.39-12,29.89-14.73,34.72-31.48,56.37-85.85,59.37-93.45,58.26-22.65-3.38-69.87-24.12-83.85-49.67l.15.62c-6.43-17.7-15.17-29.14-18.52-46.51a79,79,0,0,1-1.4-15,120.71,120.71,0,0,1,1.91-20.37v0a220,220,0,0,1,5.9-24.5C85.88,46,55.9,17,69.36,7.69,77.71,2,107.64,48.56,130.05,45.42c10.38-1.48,55.3,7.26,82.5,0C237.93,38.6,265.43-9,274.82,4.34c6.44,9.12-2.66,30.23-7.3,67.9-.93,7.57,1.38,14.85,4.34,22.54,2.12,5.49,4.58,11.16,6.46,17.27A64.25,64.25,0,0,1,281.29,128.36Z"/><path class="cls-3" d="M105.13,90.77A105.89,105.89,0,0,1,138.38,116"/><path class="cls-3" d="M136.73,89a101.78,101.78,0,0,0-34.59,23.78"/><path class="cls-3" d="M200.39,89.51a106,106,0,0,1,33.25,25.19"/><path class="cls-3" d="M232,87.78a101.54,101.54,0,0,0-34.59,23.78"/></g></g></svg>