<svg xmlns="http://www.w3.org/2000/svg" viewBox="0 0 78.61 76.28"><g id="Layer_2" data-name="Layer 2"><g id="Layer_5" data-name="Layer 5"><path d="M29.26,29C24.12,29,20,22.62,20,14.76S24.12.5,29.26.5s9.3,6.4,9.3,14.26S34.39,29,29.26,29Z"/><path d="M29.26,1c4.85,0,8.8,6.17,8.8,13.76s-4,13.75-8.8,13.75-8.81-6.17-8.81-13.75S24.4,1,29.26,1m0-1c-5.42,0-9.81,6.61-9.81,14.76s4.39,14.75,9.81,14.75,9.8-6.61,9.8-14.75S34.67,0,29.26,0Z"/><path d="M41.13,30c-5.75.72-10.7,2.33-16.58,13.26C11.81,50.83,6,59.3,10.63,69.11c5.76,10.3,16.5,8,28.61,2.35C58.67,78.35,64.77,77,70.18,69.9c7-11,.83-18.53-13.15-26.64C52.37,33.79,47,30.72,41.13,30Z"/><path d="M9.81,44C4.67,44,.5,37.62.5,29.76S4.67,15.51,9.81,15.51s9.3,6.39,9.3,14.25S14.94,44,9.81,44Z"/><path d="M9.81,16c4.85,0,8.8,6.17,8.8,13.75s-3.95,13.76-8.8,13.76S1,37.35,1,29.76,5,16,9.81,16m0-1C4.39,15,0,21.61,0,29.76S4.39,44.52,9.81,44.52s9.8-6.61,9.8-14.76S15.22,15,9.81,15Z"/><path d="M50.81,29c-5.14,0-9.31-6.4-9.31-14.26S45.67.51,50.81.51s9.3,6.39,9.3,14.25S55.94,29,50.81,29Z"/><path d="M50.81,1c4.85,0,8.8,6.17,8.8,13.75s-4,13.76-8.8,13.76S42,22.35,42,14.76,46,1,50.81,1m0-1C45.39,0,41,6.61,41,14.76s4.39,14.76,9.81,14.76,9.8-6.61,9.8-14.76S56.22,0,50.81,0Z"/><path d="M68.81,44c-5.14,0-9.31-6.4-9.31-14.26s4.17-14.25,9.31-14.25,9.3,6.39,9.3,14.25S73.94,44,68.81,44Z"/><path d="M68.81,16c4.85,0,8.8,6.17,8.8,13.75s-4,13.76-8.8,13.76S60,37.35,60,29.76,64,16,68.81,16m0-1C63.39,15,59,21.61,59,29.76s4.39,14.76,9.81,14.76,9.8-6.61,9.8-14.76S74.22,15,68.81,15Z"/></g></g></svg>